<?xml version="1.0" standalone="no"?>
<!DOCTYPE svg PUBLIC "-//W3C//DTD SVG 20010904//EN"
 "http://www.w3.org/TR/2001/REC-SVG-20010904/DTD/svg10.dtd">
<svg version="1.0" xmlns="http://www.w3.org/2000/svg"
 width="256.000000pt" height="256.000000pt" viewBox="0 0 256.000000 256.000000"
 preserveAspectRatio="xMidYMid meet">

<g transform="translate(0.000000,256.000000) scale(0.100000,-0.100000)"
fill="#000000" stroke="none">
<path d="M480 2155 l-24 -26 57 -57 57 -57 27 28 27 27 -54 55 c-30 30 -57 55
-60 55 -4 0 -17 -11 -30 -25z"/>
<path d="M1990 2125 l-54 -55 27 -27 27 -28 57 57 57 57 -24 26 c-13 14 -26
25 -30 25 -3 0 -30 -25 -60 -55z"/>
<path d="M1240 2120 l0 -40 -80 0 -80 0 0 -120 0 -120 160 0 160 0 0 -40 0
-40 -160 0 -160 0 0 -40 0 -40 80 0 80 0 0 -40 0 -40 40 0 40 0 0 40 0 40 80
0 80 0 0 120 0 120 -160 0 -160 0 0 40 0 40 160 0 160 0 0 40 0 40 -80 0 -80
0 0 40 0 40 -40 0 -40 0 0 -40z"/>
<path d="M440 1880 l0 -40 80 0 80 0 0 40 0 40 -80 0 -80 0 0 -40z"/>
<path d="M1960 1880 l0 -40 80 0 80 0 0 40 0 40 -80 0 -80 0 0 -40z"/>
<path d="M510 1685 l-54 -55 27 -27 27 -28 57 57 57 57 -24 26 c-13 14 -26 25
-30 25 -3 0 -30 -25 -60 -55z"/>
<path d="M1960 1715 l-24 -26 57 -57 57 -57 27 28 27 27 -54 55 c-30 30 -57
55 -60 55 -4 0 -17 -11 -30 -25z"/>
</g>
</svg>
