<?xml version="1.0" standalone="no"?>
<!DOCTYPE svg PUBLIC "-//W3C//DTD SVG 20010904//EN"
 "http://www.w3.org/TR/2001/REC-SVG-20010904/DTD/svg10.dtd">
<svg version="1.0" xmlns="http://www.w3.org/2000/svg"
 width="256.000000pt" height="256.000000pt" viewBox="0 0 256.000000 256.000000"
 preserveAspectRatio="xMidYMid meet">

<g transform="translate(0.000000,256.000000) scale(0.100000,-0.100000)"
fill="#000000" stroke="none">
<path d="M655 2366 c-179 -37 -225 -136 -195 -416 l13 -120 26 6 c56 13 67 26
121 146 36 81 120 100 192 44 43 -32 114 -51 159 -42 20 3 58 21 85 39 95 62
170 38 214 -71 30 -74 64 -112 100 -112 24 0 28 5 38 53 46 204 32 337 -40
390 -35 26 -97 26 -139 -1 l-33 -21 -37 33 c-66 60 -134 79 -299 82 -89 2
-168 -2 -205 -10z"/>
<path d="M725 1824 c-32 -32 -7 -112 30 -97 19 7 29 45 21 77 -7 30 -31 40
-51 20z"/>
<path d="M1098 1805 c-15 -33 3 -75 32 -75 12 0 25 10 32 25 15 33 -3 75 -32
75 -12 0 -25 -10 -32 -25z"/>
</g>
</svg>
